<svg width="147" height="78" viewBox="0 0 147 78" fill="none" xmlns="http://www.w3.org/2000/svg">
<g clip-path="url(#clip0)">
<path fill-rule="evenodd" clip-rule="evenodd" d="M136.487 0C142.293 0 147 4.70359 147 10.4992V67.5008C147 73.2994 142.296 78 136.487 78L10.5129 78C4.70679 78 0 73.2964 0 67.5008V10.4992C0 4.70064 4.70384 0 10.5129 0L136.487 0ZM136.504 4.5L10.4962 4.5C7.19473 4.5 4.5 7.18745 4.5 10.5026V67.4974C4.5 70.8163 7.18459 73.5 10.4962 73.5L136.504 73.5C139.805 73.5 142.5 70.8165 142.5 67.5063V57.0037C142.5 56.1836 141.923 55.1537 141.211 54.7264L136.289 51.7736C135.589 51.3531 135 50.3278 135 49.4987V28.5013C135 27.6669 135.577 26.6537 136.289 26.2264L141.211 23.2736C141.911 22.8531 142.5 21.8268 142.5 20.9963V10.4937C142.5 7.19478 139.815 4.5 136.504 4.5Z" fill="black"/>
<path d="M99.5703 14.0938H47.4297C42.2218 14.0938 38 18.3156 38 23.5234V53.4766C38 58.6844 42.2218 62.9062 47.4297 62.9062H99.5703C104.778 62.9062 109 58.6844 109 53.4766V23.5234C109 18.3156 104.778 14.0938 99.5703 14.0938Z" fill="#FF9E80"/>
<path d="M104.529 15.5081C99.5483 38.7911 78.8564 56.2499 54.086 56.2499C48.6243 56.2551 43.1964 55.3922 38.0056 53.6934C38.0646 56.1548 39.083 58.4957 40.8436 60.2168C42.6042 61.9379 44.9677 62.903 47.4298 62.9061H99.5704C102.07 62.9033 104.467 61.9089 106.235 60.1411C108.003 58.3733 108.997 55.9765 109 53.4764V23.5233C108.999 21.9171 108.588 20.3379 107.806 18.9352C107.023 17.5325 105.895 16.3528 104.529 15.5081Z" fill="#FF8B6C"/>
<path d="M57.9688 50.7031C57.0944 50.7054 56.2282 50.5342 55.4204 50.1994C54.6126 49.8647 53.8792 49.3731 53.2627 48.7531C52.6426 48.1365 52.151 47.4031 51.8163 46.5953C51.4815 45.7875 51.3103 44.9213 51.3125 44.0469V42.4718L53.5313 42.0281V36.2812H62.4063V42.028L64.625 42.4717V44.0469C64.623 45.8116 63.9211 47.5035 62.6732 48.7513C61.4254 49.9992 59.7335 50.7011 57.9688 50.7031Z" fill="#FAC7B7"/>
<path d="M73.5 48.7936V56.25H42.4375V48.7936C42.4403 47.512 42.8856 46.2707 43.6983 45.2796C44.5109 44.2886 45.6409 43.6087 46.8972 43.3549L53.5312 42.0278V44.0469C53.5312 45.2238 53.9988 46.3525 54.831 47.1847C55.6632 48.0169 56.7919 48.4844 57.9688 48.4844C59.1456 48.4844 60.2743 48.0169 61.1065 47.1847C61.9387 46.3525 62.4062 45.2238 62.4062 44.0469V42.0278L69.0403 43.3549C70.2966 43.6087 71.4266 44.2886 72.2392 45.2796C73.0519 46.2707 73.4972 47.512 73.5 48.7936Z" fill="#0277BD"/>
<path d="M69.0403 43.355L68.8527 43.3174C66.9232 47.2021 63.9474 50.471 60.2605 52.7559C56.5735 55.0407 52.3219 56.2509 47.9844 56.2501H73.5V48.7937C73.4972 47.5121 73.0519 46.2707 72.2392 45.2797C71.4266 44.2886 70.2966 43.6087 69.0403 43.355Z" fill="#0469BC"/>
<path d="M50.2031 52.9219V56.25H47.9844V52.9219C47.9844 52.6277 48.1013 52.3455 48.3093 52.1374C48.5174 51.9294 48.7995 51.8125 49.0938 51.8125C49.388 51.8125 49.6701 51.9294 49.8782 52.1374C50.0862 52.3455 50.2031 52.6277 50.2031 52.9219Z" fill="#01579B"/>
<path d="M67.9531 52.9219V56.25H65.7344V52.9219C65.7344 52.6277 65.8513 52.3455 66.0593 52.1374C66.2674 51.9294 66.5495 51.8125 66.8438 51.8125C67.138 51.8125 67.4201 51.9294 67.6282 52.1374C67.8362 52.3455 67.9531 52.6277 67.9531 52.9219Z" fill="#01579B"/>
<path d="M101.234 32.9531C100.94 32.9531 100.658 32.8362 100.45 32.6282C100.242 32.4201 100.125 32.138 100.125 31.8438V28.5156C100.125 28.2214 100.242 27.9392 100.45 27.7312C100.658 27.5231 100.94 27.4062 101.234 27.4062C101.529 27.4062 101.811 27.5231 102.019 27.7312C102.227 27.9392 102.344 28.2214 102.344 28.5156V31.8438C102.344 32.138 102.227 32.4201 102.019 32.6282C101.811 32.8362 101.529 32.9531 101.234 32.9531Z" fill="#FFBDAB"/>
<path d="M96.7969 32.9531C96.5027 32.9531 96.2205 32.8362 96.0124 32.6282C95.8044 32.4201 95.6875 32.138 95.6875 31.8438V28.5156C95.6875 28.2214 95.8044 27.9392 96.0124 27.7312C96.2205 27.5231 96.5027 27.4062 96.7969 27.4062C97.0911 27.4062 97.3733 27.5231 97.5813 27.7312C97.7894 27.9392 97.9062 28.2214 97.9062 28.5156V31.8438C97.9062 32.138 97.7894 32.4201 97.5813 32.6282C97.3733 32.8362 97.0911 32.9531 96.7969 32.9531Z" fill="#FFBDAB"/>
<path d="M92.3594 32.9531C92.0652 32.9531 91.783 32.8362 91.5749 32.6282C91.3669 32.4201 91.25 32.138 91.25 31.8438V28.5156C91.25 28.2214 91.3669 27.9392 91.5749 27.7312C91.783 27.5231 92.0652 27.4062 92.3594 27.4062C92.6536 27.4062 92.9358 27.5231 93.1438 27.7312C93.3519 27.9392 93.4688 28.2214 93.4688 28.5156V31.8438C93.4688 32.138 93.3519 32.4201 93.1438 32.6282C92.9358 32.8362 92.6536 32.9531 92.3594 32.9531Z" fill="#FFBDAB"/>
<path d="M87.9219 32.9531C87.6277 32.9531 87.3455 32.8362 87.1374 32.6282C86.9294 32.4201 86.8125 32.138 86.8125 31.8438V28.5156C86.8125 28.2214 86.9294 27.9392 87.1374 27.7312C87.3455 27.5231 87.6277 27.4062 87.9219 27.4062C88.2161 27.4062 88.4983 27.5231 88.7063 27.7312C88.9144 27.9392 89.0312 28.2214 89.0312 28.5156V31.8438C89.0312 32.138 88.9144 32.4201 88.7063 32.6282C88.4983 32.8362 88.2161 32.9531 87.9219 32.9531Z" fill="#FFBDAB"/>
<path d="M83.4844 32.9531C83.1902 32.9531 82.908 32.8362 82.6999 32.6282C82.4919 32.4201 82.375 32.138 82.375 31.8438V28.5156C82.375 28.2214 82.4919 27.9392 82.6999 27.7312C82.908 27.5231 83.1902 27.4062 83.4844 27.4062C83.7786 27.4062 84.0608 27.5231 84.2688 27.7312C84.4769 27.9392 84.5938 28.2214 84.5938 28.5156V31.8438C84.5938 32.138 84.4769 32.4201 84.2688 32.6282C84.0608 32.8362 83.7786 32.9531 83.4844 32.9531Z" fill="#FFBDAB"/>
<path d="M79.0469 32.9531C78.7527 32.9531 78.4705 32.8362 78.2624 32.6282C78.0544 32.4201 77.9375 32.138 77.9375 31.8438V28.5156C77.9375 28.2214 78.0544 27.9392 78.2624 27.7312C78.4705 27.5231 78.7527 27.4062 79.0469 27.4062C79.3411 27.4062 79.6233 27.5231 79.8313 27.7312C80.0394 27.9392 80.1562 28.2214 80.1562 28.5156V31.8438C80.1562 32.138 80.0394 32.4201 79.8313 32.6282C79.6233 32.8362 79.3411 32.9531 79.0469 32.9531Z" fill="#FFBDAB"/>
<path d="M100.125 24.0781C100.125 23.7839 100.242 23.5017 100.45 23.2937C100.658 23.0856 100.94 22.9688 101.234 22.9688C101.529 22.9688 101.811 23.0856 102.019 23.2937C102.227 23.5017 102.344 23.7839 102.344 24.0781C102.344 24.3723 102.227 24.6545 102.019 24.8626C101.811 25.0706 101.529 25.1875 101.234 25.1875C100.94 25.1875 100.658 25.0706 100.45 24.8626C100.242 24.6545 100.125 24.3723 100.125 24.0781ZM95.6875 24.0781C95.6875 23.7839 95.8044 23.5017 96.0124 23.2937C96.2205 23.0856 96.5027 22.9688 96.7969 22.9688C97.0911 22.9688 97.3733 23.0856 97.5813 23.2937C97.7894 23.5017 97.9062 23.7839 97.9062 24.0781C97.9062 24.3723 97.7894 24.6545 97.5813 24.8626C97.3733 25.0706 97.0911 25.1875 96.7969 25.1875C96.5027 25.1875 96.2205 25.0706 96.0124 24.8626C95.8044 24.6545 95.6875 24.3723 95.6875 24.0781ZM91.25 24.0781C91.25 23.7839 91.3669 23.5017 91.5749 23.2937C91.783 23.0856 92.0652 22.9688 92.3594 22.9688C92.6536 22.9688 92.9358 23.0856 93.1438 23.2937C93.3519 23.5017 93.4688 23.7839 93.4688 24.0781C93.4688 24.3723 93.3519 24.6545 93.1438 24.8626C92.9358 25.0706 92.6536 25.1875 92.3594 25.1875C92.0652 25.1875 91.783 25.0706 91.5749 24.8626C91.3669 24.6545 91.25 24.3723 91.25 24.0781ZM86.8125 24.0781C86.8125 23.7839 86.9294 23.5017 87.1374 23.2937C87.3455 23.0856 87.6277 22.9688 87.9219 22.9688C88.2161 22.9688 88.4983 23.0856 88.7063 23.2937C88.9144 23.5017 89.0312 23.7839 89.0312 24.0781C89.0312 24.3723 88.9144 24.6545 88.7063 24.8626C88.4983 25.0706 88.2161 25.1875 87.9219 25.1875C87.6277 25.1875 87.3455 25.0706 87.1374 24.8626C86.9294 24.6545 86.8125 24.3723 86.8125 24.0781ZM82.375 24.0781C82.375 23.7839 82.4919 23.5017 82.6999 23.2937C82.908 23.0856 83.1902 22.9688 83.4844 22.9688C83.7786 22.9688 84.0608 23.0856 84.2688 23.2937C84.4769 23.5017 84.5938 23.7839 84.5938 24.0781C84.5938 24.3723 84.4769 24.6545 84.2688 24.8626C84.0608 25.0706 83.7786 25.1875 83.4844 25.1875C83.1902 25.1875 82.908 25.0706 82.6999 24.8626C82.4919 24.6545 82.375 24.3723 82.375 24.0781ZM77.9375 24.0781C77.9375 23.7839 78.0544 23.5017 78.2624 23.2937C78.4705 23.0856 78.7527 22.9688 79.0469 22.9688C79.3411 22.9688 79.6233 23.0856 79.8313 23.2937C80.0394 23.5017 80.1562 23.7839 80.1562 24.0781C80.1562 24.3723 80.0394 24.6545 79.8313 24.8626C79.6233 25.0706 79.3411 25.1875 79.0469 25.1875C78.7527 25.1875 78.4705 25.0706 78.2624 24.8626C78.0544 24.6545 77.9375 24.3723 77.9375 24.0781Z" fill="#FFBDAB"/>
<path d="M101.234 40.7188H87.9219C87.6277 40.7188 87.3455 40.6019 87.1374 40.3938C86.9294 40.1858 86.8125 39.9036 86.8125 39.6094C86.8125 39.3152 86.9294 39.033 87.1374 38.8249C87.3455 38.6169 87.6277 38.5 87.9219 38.5H101.234C101.529 38.5 101.811 38.6169 102.019 38.8249C102.227 39.033 102.344 39.3152 102.344 39.6094C102.344 39.9036 102.227 40.1858 102.019 40.3938C101.811 40.6019 101.529 40.7188 101.234 40.7188ZM83.4844 40.7188C83.265 40.7188 83.0505 40.6537 82.868 40.5318C82.6856 40.4099 82.5434 40.2366 82.4594 40.0339C82.3755 39.8312 82.3535 39.6081 82.3963 39.3929C82.4391 39.1777 82.5448 38.9801 82.6999 38.8249C82.8551 38.6698 83.0527 38.5641 83.2679 38.5213C83.4831 38.4785 83.7062 38.5005 83.9089 38.5844C84.1116 38.6684 84.2849 38.8106 84.4068 38.993C84.5287 39.1755 84.5938 39.39 84.5938 39.6094C84.5933 39.9035 84.4763 40.1854 84.2684 40.3934C84.0604 40.6013 83.7785 40.7183 83.4844 40.7188ZM79.0469 40.7188C78.8275 40.7188 78.613 40.6537 78.4305 40.5318C78.2481 40.4099 78.1059 40.2366 78.0219 40.0339C77.938 39.8312 77.916 39.6081 77.9588 39.3929C78.0016 39.1777 78.1073 38.9801 78.2624 38.8249C78.4176 38.6698 78.6152 38.5641 78.8304 38.5213C79.0456 38.4785 79.2687 38.5005 79.4714 38.5844C79.6741 38.6684 79.8474 38.8106 79.9693 38.993C80.0912 39.1755 80.1562 39.39 80.1562 39.6094C80.1558 39.9035 80.0388 40.1854 79.8309 40.3934C79.6229 40.6013 79.341 40.7183 79.0469 40.7188Z" fill="#FF6E40"/>
<path d="M101.234 45.1562H79.0469C78.7527 45.1562 78.4705 45.0394 78.2624 44.8313C78.0544 44.6233 77.9375 44.3411 77.9375 44.0469C77.9375 43.7527 78.0544 43.4705 78.2624 43.2624C78.4705 43.0544 78.7527 42.9375 79.0469 42.9375H101.234C101.529 42.9375 101.811 43.0544 102.019 43.2624C102.227 43.4705 102.344 43.7527 102.344 44.0469C102.344 44.3411 102.227 44.6233 102.019 44.8313C101.811 45.0394 101.529 45.1562 101.234 45.1562Z" fill="#FF6E40"/>
<path d="M101.234 49.5938H79.0469C78.7527 49.5938 78.4705 49.4769 78.2624 49.2688C78.0544 49.0608 77.9375 48.7786 77.9375 48.4844C77.9375 48.1902 78.0544 47.908 78.2624 47.6999C78.4705 47.4919 78.7527 47.375 79.0469 47.375H101.234C101.529 47.375 101.811 47.4919 102.019 47.6999C102.227 47.908 102.344 48.1902 102.344 48.4844C102.344 48.7786 102.227 49.0608 102.019 49.2688C101.811 49.4769 101.529 49.5938 101.234 49.5938Z" fill="#FF6E40"/>
<path d="M101.234 54.0312C101.015 54.0312 100.8 53.9662 100.618 53.8443C100.436 53.7224 100.293 53.5491 100.209 53.3464C100.125 53.1437 100.104 52.9206 100.146 52.7054C100.189 52.4902 100.295 52.2926 100.45 52.1374C100.605 51.9823 100.803 51.8766 101.018 51.8338C101.233 51.791 101.456 51.813 101.659 51.8969C101.862 51.9809 102.035 52.1231 102.157 52.3055C102.279 52.488 102.344 52.7025 102.344 52.9219C102.343 53.216 102.226 53.4979 102.018 53.7059C101.81 53.9138 101.528 54.0308 101.234 54.0312ZM96.7969 54.0312C96.5775 54.0312 96.363 53.9662 96.1805 53.8443C95.9981 53.7224 95.8559 53.5491 95.7719 53.3464C95.688 53.1437 95.666 52.9206 95.7088 52.7054C95.7516 52.4902 95.8573 52.2926 96.0124 52.1374C96.1676 51.9823 96.3652 51.8766 96.5804 51.8338C96.7956 51.791 97.0187 51.813 97.2214 51.8969C97.4241 51.9809 97.5974 52.1231 97.7193 52.3055C97.8412 52.488 97.9062 52.7025 97.9062 52.9219C97.9058 53.216 97.7888 53.4979 97.5809 53.7059C97.3729 53.9138 97.091 54.0308 96.7969 54.0312ZM92.3594 54.0312H79.0469C78.7527 54.0312 78.4705 53.9144 78.2624 53.7063C78.0544 53.4983 77.9375 53.2161 77.9375 52.9219C77.9375 52.6277 78.0544 52.3455 78.2624 52.1374C78.4705 51.9294 78.7527 51.8125 79.0469 51.8125H92.3594C92.6536 51.8125 92.9358 51.9294 93.1438 52.1374C93.3519 52.3455 93.4688 52.6277 93.4688 52.9219C93.4688 53.2161 93.3519 53.4983 93.1438 53.7063C92.9358 53.9144 92.6536 54.0312 92.3594 54.0312Z" fill="#FF6E40"/>
<path d="M49.2781 31.083C49.0176 29.8491 49.0371 28.5725 49.3353 27.3471C49.6334 26.1218 50.2025 24.9789 51.0008 24.0026C51.8371 22.9856 52.8883 22.1664 54.0789 21.604C55.2695 21.0417 56.5699 20.75 57.8866 20.75C59.2033 20.75 60.5037 21.0417 61.6943 21.604C62.8849 22.1664 63.9361 22.9856 64.7724 24.0026C65.5701 24.9778 66.1391 26.1194 66.4376 27.3434C66.736 28.5675 66.7564 29.8429 66.4971 31.0758L64.4013 31.4164C63.9879 30.6225 63.2955 30.0097 62.4573 29.6959C61.6241 30.0272 59.6518 30.7344 57.9688 30.7344C56.2857 30.7344 54.3129 30.0272 53.4804 29.6959C52.9692 29.8933 51.9525 30.4188 51.4515 31.5969L49.2781 31.083Z" fill="#525252"/>
<path d="M57.8865 41.8281C54.4527 41.8281 51.4633 39.6732 50.4483 36.466L50.4216 36.3659L49.2715 31.0533L49.4102 30.7289C50.0041 29.3321 51.1548 28.4686 52.1069 27.9643C52.5114 27.7525 52.9557 27.6273 53.4113 27.5968C53.8669 27.5662 54.3238 27.6309 54.753 27.7867C55.6731 28.117 56.9868 28.5156 57.9687 28.5156C58.9506 28.5156 60.2684 28.1159 61.1895 27.7852C61.6218 27.6293 62.0819 27.5654 62.5403 27.5974C62.9988 27.6294 63.4455 27.7566 63.852 27.971C64.7369 28.4392 65.7852 29.2141 66.3886 30.4297L66.5614 30.7777L65.3253 36.466C64.3096 39.6732 61.3204 41.8281 57.8865 41.8281Z" fill="#FFDECF"/>
<path d="M54.5712 38.4998C53.4215 38.5005 52.2766 38.3532 51.1646 38.0616C51.8613 39.2192 52.8476 40.1753 54.0263 40.8357C55.205 41.4961 56.5353 41.8381 57.8864 41.828C61.3203 41.828 64.3095 39.6731 65.3248 36.4659L66.4515 31.2812C65.3226 33.4574 63.6175 35.2815 61.5224 36.5546C59.4273 37.8276 57.0227 38.5005 54.5712 38.4998Z" fill="#FFD3C2"/>
<path d="M52.9766 32.9531C53.8956 32.9531 54.6406 32.2081 54.6406 31.2891C54.6406 30.37 53.8956 29.625 52.9766 29.625C52.0575 29.625 51.3125 30.37 51.3125 31.2891C51.3125 32.2081 52.0575 32.9531 52.9766 32.9531Z" fill="#FFF5F2"/>
<path d="M55.75 35.1719C56.3627 35.1719 56.8594 34.6752 56.8594 34.0625C56.8594 33.4498 56.3627 32.9531 55.75 32.9531C55.1373 32.9531 54.6406 33.4498 54.6406 34.0625C54.6406 34.6752 55.1373 35.1719 55.75 35.1719Z" fill="#FFF5F2"/>
<path d="M47.4297 48.4844C48.3487 48.4844 49.0938 47.7393 49.0938 46.8203C49.0938 45.9013 48.3487 45.1562 47.4297 45.1562C46.5107 45.1562 45.7656 45.9013 45.7656 46.8203C45.7656 47.7393 46.5107 48.4844 47.4297 48.4844Z" fill="#4BAEE0"/>
<path d="M50.2031 50.7031C50.8158 50.7031 51.3125 50.2064 51.3125 49.5938C51.3125 48.9811 50.8158 48.4844 50.2031 48.4844C49.5904 48.4844 49.0938 48.9811 49.0938 49.5938C49.0938 50.2064 49.5904 50.7031 50.2031 50.7031Z" fill="#4BAEE0"/>
<path d="M55.75 24.0781C56.3627 24.0781 56.8594 23.5814 56.8594 22.9688C56.8594 22.3561 56.3627 21.8594 55.75 21.8594C55.1373 21.8594 54.6406 22.3561 54.6406 22.9688C54.6406 23.5814 55.1373 24.0781 55.75 24.0781Z" fill="#848484"/>
<path d="M57.9688 26.2969C58.5814 26.2969 59.0781 25.8002 59.0781 25.1875C59.0781 24.5748 58.5814 24.0781 57.9688 24.0781C57.3561 24.0781 56.8594 24.5748 56.8594 25.1875C56.8594 25.8002 57.3561 26.2969 57.9688 26.2969Z" fill="#848484"/>
<circle cx="16.5" cy="40.5" r="6.5" fill="white"/>
</g>
<defs>
<clipPath id="clip0">
<rect x="147" width="78" height="147" transform="rotate(90 147 0)" fill="white"/>
</clipPath>
</defs>
</svg>
